<svg xmlns="http://www.w3.org/2000/svg" viewBox="0 0 500 450" width="500" height="450">
  <!-- Background -->
  <rect width="500" height="450" fill="#1E1E2E"/>
  
  <!-- Stars/dots in background -->
  <circle cx="50" cy="40" r="2" fill="#6C70CE" opacity="0.6"/>
  <circle cx="120" cy="80" r="1.5" fill="#6C70CE" opacity="0.4"/>
  <circle cx="450" cy="60" r="2" fill="#6C70CE" opacity="0.5"/>
  <circle cx="400" cy="30" r="1.5" fill="#6C70CE" opacity="0.6"/>
  <circle cx="480" cy="100" r="1" fill="#6C70CE" opacity="0.4"/>
  <circle cx="30" cy="120" r="1" fill="#6C70CE" opacity="0.5"/>
  
  <!-- Desk -->
  <rect x="50" y="350" width="400" height="15" rx="3" fill="#8B7355"/>
  <rect x="60" y="365" width="80" height="80" rx="5" fill="#7A6548"/>
  <rect x="360" y="365" width="80" height="80" rx="5" fill="#7A6548"/>
  
  <!-- Monitor -->
  <rect x="130" y="150" width="240" height="160" rx="10" fill="#2D2D3D"/>
  <rect x="140" y="160" width="220" height="130" rx="5" fill="#0D1117"/>
  
  <!-- Monitor stand -->
  <rect x="220" y="310" width="60" height="25" fill="#3D3D4D"/>
  <rect x="200" y="335" width="100" height="15" rx="5" fill="#3D3D4D"/>
  
  <!-- Code on screen -->
  <!-- Line numbers -->
  <text x="148" y="182" font-family="monospace" font-size="10" fill="#8B949E">1</text>
  <text x="148" y="196" font-family="monospace" font-size="10" fill="#8B949E">2</text>
  <text x="148" y="210" font-family="monospace" font-size="10" fill="#8B949E">3</text>
  <text x="148" y="224" font-family="monospace" font-size="10" fill="#8B949E">4</text>
  <text x="148" y="238" font-family="monospace" font-size="10" fill="#8B949E">5</text>
  <text x="148" y="252" font-family="monospace" font-size="10" fill="#8B949E">6</text>
  <text x="148" y="266" font-family="monospace" font-size="10" fill="#8B949E">7</text>
  <text x="148" y="280" font-family="monospace" font-size="10" fill="#8B949E">8</text>
  
  <!-- Code lines -->
  <text x="165" y="182" font-family="monospace" font-size="9" fill="#FF79C6">const</text>
  <text x="198" y="182" font-family="monospace" font-size="9" fill="#F8F8F2">cat</text>
  <text x="218" y="182" font-family="monospace" font-size="9" fill="#FF79C6">=</text>
  <text x="228" y="182" font-family="monospace" font-size="9" fill="#F8F8F2">{</text>
  
  <text x="175" y="196" font-family="monospace" font-size="9" fill="#F8F8F2">name:</text>
  <text x="210" y="196" font-family="monospace" font-size="9" fill="#F1FA8C">"Мурка"</text>
  <text x="260" y="196" font-family="monospace" font-size="9" fill="#F8F8F2">,</text>
  
  <text x="175" y="210" font-family="monospace" font-size="9" fill="#F8F8F2">mood:</text>
  <text x="212" y="210" font-family="monospace" font-size="9" fill="#F1FA8C">"😊"</text>
  <text x="235" y="210" font-family="monospace" font-size="9" fill="#F8F8F2">,</text>
  
  <text x="175" y="224" font-family="monospace" font-size="9" fill="#8BE9FD">coding</text>
  <text x="218" y="224" font-family="monospace" font-size="9" fill="#FF79C6">:</text>
  <text x="228" y="224" font-family="monospace" font-size="9" fill="#50FA7B">true</text>
  
  <text x="165" y="238" font-family="monospace" font-size="9" fill="#F8F8F2">};</text>
  
  <text x="165" y="252" font-family="monospace" font-size="9" fill="#8BE9FD">function</text>
  <text x="215" y="252" font-family="monospace" font-size="9" fill="#50FA7B">purr</text>
  <text x="238" y="252" font-family="monospace" font-size="9" fill="#F8F8F2">() {</text>
  
  <text x="175" y="266" font-family="monospace" font-size="9" fill="#FF79C6">return</text>
  <text x="212" y="266" font-family="monospace" font-size="9" fill="#F1FA8C">"😻"</text>
  <text x="232" y="266" font-family="monospace" font-size="9" fill="#F8F8F2">;</text>
  
  <text x="165" y="280" font-family="monospace" font-size="9" fill="#F8F8F2">}</text>
  
  <!-- Blinking cursor -->
  <rect x="182" y="272" width="8" height="12" fill="#50FA7B">
    <animate attributeName="opacity" values="1;0;1" dur="1s" repeatCount="indefinite"/>
  </rect>
  
  <!-- Cat body -->
  <ellipse cx="250" cy="400" rx="70" ry="50" fill="#F5A962"/>
  
  <!-- Cat paws on keyboard -->
  <ellipse cx="200" cy="345" rx="25" ry="18" fill="#F5A962"/>
  <ellipse cx="300" cy="345" rx="25" ry="18" fill="#F5A962"/>
  
  <!-- Paw pads -->
  <circle cx="195" cy="350" r="5" fill="#FFB6C1"/>
  <circle cx="205" cy="355" r="4" fill="#FFB6C1"/>
  <circle cx="185" cy="355" r="4" fill="#FFB6C1"/>
  
  <circle cx="295" cy="350" r="5" fill="#FFB6C1"/>
  <circle cx="305" cy="355" r="4" fill="#FFB6C1"/>
  <circle cx="285" cy="355" r="4" fill="#FFB6C1"/>
  
  <!-- Keyboard -->
  <rect x="175" y="360" width="150" height="35" rx="5" fill="#3D3D4D"/>
  <!-- Keyboard keys -->
  <g fill="#5A5A6A">
    <rect x="182" y="367" width="12" height="8" rx="1"/>
    <rect x="197" y="367" width="12" height="8" rx="1"/>
    <rect x="212" y="367" width="12" height="8" rx="1"/>
    <rect x="227" y="367" width="12" height="8" rx="1"/>
    <rect x="242" y="367" width="12" height="8" rx="1"/>
    <rect x="257" y="367" width="12" height="8" rx="1"/>
    <rect x="272" y="367" width="12" height="8" rx="1"/>
    <rect x="287" y="367" width="12" height="8" rx="1"/>
    <rect x="302" y="367" width="12" height="8" rx="1"/>
    
    <rect x="186" y="379" width="12" height="8" rx="1"/>
    <rect x="201" y="379" width="12" height="8" rx="1"/>
    <rect x="216" y="379" width="12" height="8" rx="1"/>
    <rect x="231" y="379" width="40" height="8" rx="1"/>
    <rect x="276" y="379" width="12" height="8" rx="1"/>
    <rect x="291" y="379" width="12" height="8" rx="1"/>
  </g>
  
  <!-- Cat head -->
  <ellipse cx="250" cy="85" rx="65" ry="55" fill="#F5A962"/>
  
  <!-- Cat ears -->
  <polygon points="190,35 215,80 165,80" fill="#F5A962"/>
  <polygon points="195,45 210,75 175,75" fill="#FFB6C1"/>
  
  <polygon points="310,35 285,80 335,80" fill="#F5A962"/>
  <polygon points="305,45 290,75 325,75" fill="#FFB6C1"/>
  
  <!-- Cat face markings -->
  <path d="M235,55 Q250,45 265,55" stroke="#E8943A" stroke-width="3" fill="none"/>
  
  <!-- Cat eyes focused on screen -->
  <ellipse cx="225" cy="75" rx="18" ry="20" fill="white"/>
  <ellipse cx="275" cy="75" rx="18" ry="20" fill="white"/>
  
  <!-- Pupils - looking at code -->
  <ellipse cx="228" cy="78" rx="8" ry="12" fill="#2D2D3D"/>
  <ellipse cx="278" cy="78" rx="8" ry="12" fill="#2D2D3D"/>
  
  <!-- Eye shine -->
  <circle cx="231" cy="73" r="4" fill="white"/>
  <circle cx="281" cy="73" r="4" fill="white"/>
  
  <!-- Nose -->
  <polygon points="250,95 243,105 257,105" fill="#FF8FAB"/>
  
  <!-- Slight smile -->
  <path d="M235,115 Q250,125 265,115" stroke="#E8943A" stroke-width="2.5" fill="none" stroke-linecap="round"/>
  
  <!-- Whiskers -->
  <line x1="175" y1="100" x2="215" y2="105" stroke="#E8943A" stroke-width="2"/>
  <line x1="175" y1="110" x2="215" y2="110" stroke="#E8943A" stroke-width="2"/>
  <line x1="175" y1="120" x2="215" y2="115" stroke="#E8943A" stroke-width="2"/>
  
  <line x1="285" y1="105" x2="325" y2="100" stroke="#E8943A" stroke-width="2"/>
  <line x1="285" y1="110" x2="325" y2="110" stroke="#E8943A" stroke-width="2"/>
  <line x1="285" y1="115" x2="325" y2="120" stroke="#E8943A" stroke-width="2"/>
  
  <!-- Coffee mug -->
  <rect x="380" y="310" width="35" height="40" rx="3" fill="#8B4513"/>
  <ellipse cx="397" cy="312" rx="17" ry="5" fill="#A0522D"/>
  <ellipse cx="397" cy="315" rx="14" ry="4" fill="#6F4E37"/>
  <path d="M415,320 Q430,320 430,335 Q430,350 415,350" stroke="#8B4513" stroke-width="5" fill="none"/>
  
  <!-- Steam from coffee -->
  <path d="M390,300 Q385,290 390,280" stroke="#888" stroke-width="2" fill="none" opacity="0.5">
    <animate attributeName="d" values="M390,300 Q385,290 390,280;M390,300 Q395,290 390,280;M390,300 Q385,290 390,280" dur="2s" repeatCount="indefinite"/>
  </path>
  <path d="M400,300 Q405,288 400,278" stroke="#888" stroke-width="2" fill="none" opacity="0.5">
    <animate attributeName="d" values="M400,300 Q405,288 400,278;M400,300 Q395,288 400,278;M400,300 Q405,288 400,278" dur="2.5s" repeatCount="indefinite"/>
  </path>
  
  <!-- Floating code symbols -->
  <text x="60" y="200" font-family="monospace" font-size="20" fill="#50FA7B" opacity="0.3">&lt;/&gt;</text>
  <text x="420" y="220" font-family="monospace" font-size="18" fill="#FF79C6" opacity="0.3">{...}</text>
  <text x="80" y="300" font-family="monospace" font-size="16" fill="#8BE9FD" opacity="0.3">()</text>
  <text x="400" y="170" font-family="monospace" font-size="14" fill="#F1FA8C" opacity="0.3">;</text>
  
  <!-- Little heart from cat being happy coding -->
  <path d="M310,50 C310,42 318,35 325,42 C332,35 340,42 340,50 C340,62 325,72 325,72 C325,72 310,62 310,50" fill="#FF6B9D">
    <animate attributeName="opacity" values="0.8;0.4;0.8" dur="1.5s" repeatCount="indefinite"/>
  </path>
</svg>